<?xml version="1.0" encoding="UTF-8" standalone="no"?>
<!-- Generator: Adobe Illustrator 20.1.0, SVG Export Plug-In . SVG Version: 6.00 Build 0)  -->

<svg
   xmlns:dc="http://purl.org/dc/elements/1.1/"
   xmlns:cc="http://creativecommons.org/ns#"
   xmlns:rdf="http://www.w3.org/1999/02/22-rdf-syntax-ns#"
   xmlns:svg="http://www.w3.org/2000/svg"
   xmlns="http://www.w3.org/2000/svg"
   xmlns:sodipodi="http://sodipodi.sourceforge.net/DTD/sodipodi-0.dtd"
   xmlns:inkscape="http://www.inkscape.org/namespaces/inkscape"
   version="1.1"
   id="artwork"
   x="0px"
   y="0px"
   viewBox="0 0 560 424.8"
   enable-background="new 0 0 986.5 424.8"
   xml:space="preserve"
   sodipodi:docname="banner.svg"
   width="560"
   height="424.79999"
   inkscape:export-filename="/home/adam/drive/skaut/web/SKAUT/img/banner.jpg.png"
   inkscape:export-xdpi="250"
   inkscape:export-ydpi="250"
   inkscape:version=""><metadata
   id="metadata69"><rdf:RDF><cc:Work
       rdf:about=""><dc:format>image/svg+xml</dc:format><dc:type
         rdf:resource="http://purl.org/dc/dcmitype/StillImage" /><dc:title /></cc:Work></rdf:RDF></metadata><defs
   id="defs67" /><sodipodi:namedview
   pagecolor="#ffffff"
   bordercolor="#666666"
   borderopacity="1"
   objecttolerance="10"
   gridtolerance="10"
   guidetolerance="10"
   inkscape:pageopacity="1"
   inkscape:pageshadow="2"
   inkscape:window-width="646"
   inkscape:window-height="504"
   id="namedview65"
   showgrid="false"
   inkscape:zoom="0.97482536"
   inkscape:cx="-8.894699"
   inkscape:cy="224.66324"
   inkscape:window-x="1255"
   inkscape:window-y="557"
   inkscape:window-maximized="0"
   inkscape:current-layer="artwork" />
<g
   id="g62"
   transform="matrix(0.45424576,0,0,0.45424576,55.943279,115.9182)">
	<g
   id="g56">
		<g
   id="g54">
			<g
   id="g38">
				<g
   id="g4">
					<path
   d="m 224.8,202.8 c -0.2,-0.7 -0.6,-2.8 -0.4,-3.3 0.2,-0.6 0.6,-1.7 0.9,-2.6 1.6,-4.8 0.9,-9.8 0.4,-10.9 -0.1,-0.2 -0.3,-0.3 -0.5,-0.3 -2.3,-0.4 -4.2,1.1 -6.6,3.9 -0.9,1.1 -2,2 -2.2,0.4 -0.2,-1 0.6,-3.1 -0.3,-3 -2.2,0.2 -3.6,1.5 -4.9,3.1 -1,1.3 -1,1.9 -2.1,2 -2.2,0.1 -3.2,0.2 -5,0.6 -1.7,0.4 -3.2,1 -4.2,1.7 -1.3,0.8 -2.2,2 -5.3,2 -4.8,0 -11,0.2 -13.3,0.6 -2.4,0.5 -2.8,2 -1.5,4.2 1.5,2.5 2,8 5.1,8.8 0.8,1.7 1.4,3.1 2.2,3 0.3,-0.1 0.6,-0.9 0.8,-1.7 0.4,-1.7 2.1,-1.8 3.2,-1.8 2.8,-0.1 4.9,0 6.7,1.1 1.3,0.7 1.9,2 1.7,2.5 -0.4,0.9 -1.3,-0.3 -6.1,0.6 -2.7,0.5 -4.3,2 -7.7,2 -5.1,0 -7.6,-3.5 -8.5,-6.6 -0.5,-1.6 -0.8,-3 -2.6,-1.3 -2.3,2.2 -2.5,6.4 -0.1,8.9 1.6,1.7 3.9,2.6 6.6,2.8 0.8,0.1 2.5,0.1 3.9,0 0,0 -0.4,1.1 0.2,2 0.6,0.9 2.3,1.7 5.1,0.8 4,-1.2 7.4,-2.3 10.2,-0.2 0.5,0.4 1.1,1.1 1.1,1.5 0,0.8 -3,3.2 -11.4,5.4 -10.3,2.8 -12.8,9.7 -11.7,13.5 0.1,0.3 0.3,0.7 0.6,0.7 0.3,0 1.9,-0.9 2.8,-1.1 1.8,-0.3 1,1 0.8,2.6 -0.8,5.7 7.4,13 14.6,18 4,2.8 6.1,3.7 7.1,3.7 1,0 3.2,-0.8 7.1,-3.7 11.2,-8.3 18.7,-19.9 17.5,-26.1 -0.7,-3.5 -2.5,-5.7 -1.6,-6.2 1,-0.6 3.2,1 3.7,0.7 1.1,-0.7 1.6,-7.2 -0.4,-14 -2.4,-6.4 -4.6,-9 -5.9,-14.3 z m -21.1,-2.1 c -1,0.1 -2.1,-0.4 -1.9,-0.7 0.1,-0.1 0.4,-0.5 0.2,-1 -0.3,-0.6 -1.3,-0.7 -1.9,-0.2 0.5,-1.2 2.2,-1.9 3.6,-1.9 2,0 2.4,1.1 2.3,2 -0.2,0.9 -1.1,1.6 -2.3,1.8 z"
   id="path2"
   inkscape:connector-curvature="0"
   style="fill:#294885" />
				</g>
				<g
   id="g8">
					<path
   d="m 139.6,267.5 c -22,1.4 -37.6,-17.1 -37.6,-35.3 0,-6.9 1,-10.6 2.8,-14.4 1.6,-3.3 3.4,-5.5 4.4,-5.5 1.1,0 1.4,1.5 1.5,2.5 4.3,22.3 20,35.2 30.7,35.4 3.1,0.1 7,-0.7 7.3,-2.2 0.5,-2.2 -3.3,-6.8 -3.3,-15.6 0,-3.5 1.6,-10 11.3,-10.3 8.6,-0.3 12.8,7.7 12.8,14.9 0.3,14.7 -10.7,29.3 -29.9,30.5 z"
   id="path6"
   inkscape:connector-curvature="0"
   style="fill:#255c9e" />
				</g>
				<g
   id="g16">
					<path
   d="m 110.8,199.3 c 1.8,-13 9.1,-22.7 17.2,-27.3 13,-7.4 25.9,-4.6 34.9,-2.6 1.3,0.3 2.4,0.1 2.8,-0.7 0.3,-0.7 0.1,-1.4 -1,-2.6 -4.2,-4.5 -14,-14.2 -15.2,-15.2 -3,-2.5 -7.9,-3.9 -11.7,-3.9 -22,0 -35.8,16.7 -35.8,35.3 0,4.9 1.4,11.2 2.9,14.7 1.4,3.3 2.9,6.2 4.1,6.2 1.5,0 1.6,-2 1.8,-3.9 z"
   id="path10"
   inkscape:connector-curvature="0"
   style="fill:#3979b5" />
					<path
   d="m 237,163.4 c -0.6,-0.5 -0.8,-1.4 -0.6,-2.8 0.9,-9.3 0,-18.5 -1.9,-22.8 -2.4,-5.5 -8.1,-13.6 -12.6,-18.3 -5.8,-6.1 -7.9,-7.8 -10.6,-9.8 -0.7,-0.5 -2.1,-1.3 -2.1,-2 0,-0.8 1.1,-1.5 2.5,-2.2 2.5,-1.2 6.2,-2.8 12.9,-3.3 8,-0.7 19.4,1 28.1,12.1 4.9,6.2 5.5,13.7 5.5,18.8 0,6.1 -1,11.5 -3.9,14.7 -4.3,4.7 -13.4,13.8 -14.6,14.8 -0.5,0.5 -1.9,1.5 -2.7,0.8 z"
   id="path12"
   inkscape:connector-curvature="0"
   style="fill:#3979b5" />
					<path
   d="m 171.2,163.4 c 0.6,-0.5 0.8,-1.4 0.6,-2.8 -0.9,-9.3 0,-18.5 1.9,-22.8 2.4,-5.5 8.1,-13.6 12.6,-18.3 5.8,-6.1 7.9,-7.8 10.6,-9.8 0.7,-0.5 2.1,-1.3 2.1,-2 0,-0.8 -1.1,-1.5 -2.5,-2.2 -2.5,-1.2 -6.2,-2.8 -12.9,-3.3 -8,-0.7 -19.4,1 -28.1,12.1 -4.9,6.2 -5.5,13.7 -5.5,18.8 0,6.1 1,11.5 3.9,14.7 4.3,4.7 13.4,13.8 14.6,14.8 0.5,0.5 1.9,1.5 2.7,0.8 z"
   id="path14"
   inkscape:connector-curvature="0"
   style="fill:#255c9e" />
				</g>
				<g
   id="g30">
					<path
   d="m 146.6,172.2 c 9.8,0 22,3.4 26.3,6.7 1.4,1 1.8,2.6 -0.1,4.5 -2.5,2.5 -7.5,7.5 -9.5,9.5 -1.8,1.8 -2.5,2.9 -2.5,6.6 0,5.6 0,12.2 0,14.6 0,1.8 -0.7,2.5 -3.3,2.8 -0.7,0.1 -2,0.2 -3.1,0.3 -3.5,0.3 -8.1,1.6 -11.4,6.7 -4.2,6.5 -1.6,15 -0.5,18.2 0.8,2.4 0.7,3.8 -2.9,3.1 -9.9,-2 -25.2,-20.2 -24.3,-40.4 1,-20.9 14.8,-32.6 31.3,-32.6 z"
   id="path18"
   inkscape:connector-curvature="0"
   style="fill:#f9b200" />
					<path
   d="m 268.6,267.5 c 22,1.4 37.6,-17.1 37.6,-35.3 0,-6.9 -1,-10.6 -2.8,-14.4 -1.6,-3.3 -3.4,-5.5 -4.4,-5.5 -1.1,0 -1.4,1.5 -1.5,2.5 -4.3,22.3 -20,35.2 -30.7,35.4 -3.1,0.1 -7,-0.7 -7.3,-2.2 -0.5,-2.2 3.3,-6.8 3.3,-15.6 0,-3.5 -1.6,-10 -11.3,-10.3 -8.6,-0.3 -12.8,7.7 -12.8,14.9 -0.3,14.7 10.7,29.3 29.9,30.5 z"
   id="path20"
   inkscape:connector-curvature="0"
   style="fill:#3979b5" />
					<path
   d="m 297.4,199.3 c -1.8,-13 -9.1,-22.7 -17.2,-27.3 -13,-7.4 -25.9,-4.6 -34.9,-2.6 -1.3,0.3 -2.4,0.1 -2.8,-0.7 -0.3,-0.7 -0.1,-1.4 1,-2.6 4.2,-4.5 14,-14.2 15.2,-15.2 3,-2.5 7.9,-3.9 11.7,-3.9 22,0 35.8,16.7 35.8,35.3 0,4.9 -1.4,11.2 -2.9,14.7 -1.4,3.3 -2.9,6.2 -4.1,6.2 -1.5,0 -1.6,-2 -1.8,-3.9 z"
   id="path22"
   inkscape:connector-curvature="0"
   style="fill:#255c9e" />
					<path
   d="m 261.6,172.2 c -9.8,0 -22,3.4 -26.3,6.7 -1.4,1 -1.8,2.6 0.1,4.5 2.5,2.5 7.5,7.5 9.5,9.5 1.8,1.8 2.5,2.9 2.5,6.6 0,5.6 0,12.2 0,14.6 0,1.8 0.7,2.5 3.3,2.8 0.7,0.1 2,0.2 3.1,0.3 3.5,0.3 8.1,1.6 11.4,6.7 4.2,6.5 1.6,15 0.5,18.2 -0.8,2.4 -0.7,3.8 2.9,3.1 9.9,-2 25.2,-20.2 24.3,-40.4 -1,-20.9 -14.8,-32.6 -31.3,-32.6 z"
   id="path24"
   inkscape:connector-curvature="0"
   style="fill:#f9b200" />
					<path
   d="m 221.3,274.3 c 4.9,-3.7 7.6,-6.2 11.7,-10.4 1.9,-1.9 4.1,-2.2 6.4,0 3.2,3.1 7.1,5.6 12.8,6 2.3,0.2 3.5,-0.5 5.1,0.2 0.8,0.4 1.6,1.5 1.7,3.4 0.2,7.5 -3.4,16.3 -14.3,18.2 -7.1,1.3 -14.2,-0.9 -17.7,-4.2 -2.4,-2.3 -5.1,-4.8 -6.6,-6.9 -1.7,-2 -1.6,-4.5 0.9,-6.3 z"
   id="path26"
   inkscape:connector-curvature="0"
   style="fill:#f9b200" />
					<path
   d="m 187,274.3 c -4.9,-3.7 -7.6,-6.2 -11.7,-10.4 -1.9,-1.9 -4.1,-2.2 -6.4,0 -3.2,3.1 -7.1,5.6 -12.8,6 -2.3,0.2 -3.5,-0.5 -5.1,0.2 -0.8,0.4 -1.6,1.5 -1.7,3.4 -0.2,7.5 3.4,16.3 14.3,18.2 7.1,1.3 14.2,-0.9 17.7,-4.2 2.4,-2.3 5.1,-4.8 6.6,-6.9 1.6,-2 1.5,-4.5 -0.9,-6.3 z"
   id="path28"
   inkscape:connector-curvature="0"
   style="fill:#f9b200" />
				</g>
				<g
   id="g36">
					<path
   d="m 177.5,142.5 c 0.9,-4.7 6.8,-13.6 12.6,-19.6 5.9,-6.1 11,-10.9 14.1,-10.9 3.1,0 8.2,4.8 14.1,10.9 5.7,6 11.6,14.9 12.6,19.6 0.9,4.7 2.2,14.5 -1.2,28.7 -1,4 -3.2,4.4 -5.7,4.4 -1.1,0 -38.4,0 -39.5,0 -2.5,0 -4.7,-0.4 -5.7,-4.4 -3.6,-14.2 -2.3,-24 -1.3,-28.7 z"
   id="path32"
   inkscape:connector-curvature="0"
   style="fill:#f49e00" />
					<path
   d="m 204.1,282.9 c 2.8,0 5,-1.7 6.9,-2 1.6,-0.2 2.7,0.3 4.1,1.8 2.1,2.1 5.2,5.5 7.3,8 1.5,1.8 3.5,4.8 0.7,11.9 -3.4,8.7 -15.5,20.1 -19.1,20.1 -3.6,0 -15.7,-11.4 -19.1,-20.1 -2.8,-7.1 -0.7,-10.1 0.7,-11.9 2,-2.5 5.1,-5.9 7.3,-8 1.5,-1.5 2.5,-2 4.1,-1.8 2.1,0.3 4.3,2 7.1,2 z"
   id="path34"
   inkscape:connector-curvature="0"
   style="fill:#f49e00" />
				</g>
			</g>
			<g
   id="g52">
				<g
   id="g48">
					<path
   d="m 401.2,174.1 c -15.4,0 -17.8,6.1 -17.8,9.8 0,17.5 44.7,12.5 44.7,46 0,22.3 -19.2,32.9 -43.9,32.9 -21.7,0 -27.1,-10.7 -27.1,-20.1 0,-1.8 0,-3.2 0.5,-5 0.5,-1.5 1.5,-2.3 3.7,-1.2 7.9,3.8 14.9,5.3 22.1,5.3 11.3,0 20.1,-3.2 20.1,-11 0,-17.7 -44.7,-14 -44.7,-46.8 0,-20.7 14.8,-31 43.9,-31 4.9,0 12.7,0.6 18,2 1.4,0.3 2,1.4 1.8,2.6 L 420,174 c -0.3,1.8 -1.2,2 -2.9,1.7 -5.4,-1.1 -11.6,-1.6 -15.9,-1.6 z"
   id="path40"
   inkscape:connector-curvature="0"
   style="fill:#294885" />
					<path
   d="m 618.1,153.8 c 15.3,0 18.9,5.2 22.1,14 l 27.4,77 c 2.9,7.9 5.2,11.4 6.7,13.6 0.5,0.6 0.5,1.5 -0.2,2 -2,1.5 -5.8,3.2 -12,3.2 -10.5,0 -16.8,-3.8 -19.8,-12.8 l -3.4,-10.1 c -0.5,-1.5 -1.2,-2 -2.7,-2 h -40.1 c -1.4,0 -2,0.6 -2.4,2 l -6.3,18.4 c -0.5,1.2 -1.2,2.1 -3.1,2.1 H 564 c -1.8,0 -3,-1.7 -2.4,-3.5 L 591,174.6 c -8.1,-1.2 -11.7,-6.3 -12.7,-17.5 -0.2,-1.8 1.1,-2.6 2.9,-2.6 12.8,0.1 24.2,-0.7 36.9,-0.7 z m 14.2,61.9 -12,-38.3 c -0.8,-2.4 -1.8,-3.5 -3.8,-3.5 h -2 l -13.5,42 c -0.3,1.1 0.2,1.7 1.4,1.7 H 631 c 1.3,0 1.6,-0.6 1.3,-1.9 z"
   id="path42"
   inkscape:connector-curvature="0"
   style="fill:#294885" />
					<path
   d="m 681.3,157.2 c -0.2,-1.8 1.1,-2.6 2.9,-2.6 8.1,-0.2 14.9,-0.8 21,-0.8 7.5,0 12.7,4.1 12.7,12.7 v 53.4 c 0,14.3 7.3,21.8 20.3,21.8 13,0 20.3,-7.5 20.3,-21.8 v -63 c 0,-1.2 1.1,-2.3 2.3,-2.3 h 19.4 c 1.2,0 2.3,1.1 2.3,2.3 v 68 c 0,24.2 -16.3,37.8 -44.2,37.8 -29.1,0 -44.2,-12.4 -44.2,-37.8 v -50.2 c -8.2,-1.2 -11.9,-6.2 -12.8,-17.5 z"
   id="path44"
   inkscape:connector-curvature="0"
   style="fill:#294885" />
					<path
   d="m 856.2,177.3 v 50.5 c 0,11.3 2.4,14 8.8,14.9 1.7,0.3 4.6,0.3 6.3,0.2 2.3,-0.3 3,1.1 2.6,3.8 -1.2,7.5 -8.4,16.2 -20.9,16.2 -14.8,0 -20.7,-7.8 -20.7,-27.8 v -57.8 c 0,-0.9 -0.6,-1.5 -1.5,-1.5 h -24.4 c -1.2,0 -2.3,-1.1 -2.3,-2.3 v -16.6 c 0,-1.2 1.1,-2.3 2.3,-2.3 h 75.8 c 1.2,0 2.3,1.1 2.3,2.3 v 16.6 c 0,1.2 -1.1,2.3 -2.3,2.3 h -24.4 c -1,0 -1.6,0.6 -1.6,1.5 z"
   id="path46"
   inkscape:connector-curvature="0"
   style="fill:#294885" />
				</g>
				<path
   d="m 470,153.8 c 7.2,0 12.5,5.3 12.5,12.5 v 36.4 l 33.4,-45.1 c 1.4,-2 3.5,-3 6.4,-3 h 18.8 c 2.7,0 4.1,2 2.4,4.3 l -34.3,45.3 c -0.5,0.6 -0.5,1.2 0,1.8 13.7,17.7 32,43.6 39.2,50.3 1.4,1.2 0.9,2.3 0,3 -2.3,1.8 -6.6,4.3 -12.3,4.3 -11.4,0 -17.5,-4.7 -23.9,-13.9 L 482.6,207.6 V 259 c 0,1.2 -1.1,2.3 -2.3,2.3 h -19.4 c -1.2,0 -2.3,-1.1 -2.3,-2.3 v -84.3 c -8.1,-1.2 -11.7,-6.3 -12.7,-17.5 -0.2,-1.8 1.1,-2.6 2.9,-2.6 7.5,0 13.8,-0.8 21.2,-0.8 z"
   id="path50"
   inkscape:connector-curvature="0"
   style="fill:#294885" />
			</g>
		</g>
	</g>
	<rect
   x="51"
   y="51"
   width="884.40002"
   height="322.70001"
   id="rect58"
   style="fill:none" />
	<rect
   y="0"
   width="986.5"
   height="424.79999"
   id="rect60"
   x="0"
   style="fill:none" />
</g>
</svg>